<svg width="170" height="170" viewBox="0 0 170 170" fill="none" xmlns="http://www.w3.org/2000/svg">
<path d="M73.9111 33.6639C80.3809 29.1171 89.0076 29.1171 95.4774 33.6639V33.6639C98.5528 35.8252 102.207 37.0125 105.965 37.0716V37.0716C113.872 37.1961 120.851 42.2667 123.413 49.7479V49.7479C124.631 53.3042 126.889 56.4125 129.895 58.6696V58.6696C136.218 63.4177 138.884 71.6221 136.559 79.1803V79.1803C135.454 82.7731 135.454 86.6152 136.559 90.208V90.208C138.884 97.7662 136.218 105.971 129.895 110.719V110.719C126.889 112.976 124.631 116.084 123.413 119.64V119.64C120.851 127.122 113.872 132.192 105.965 132.317V132.317C102.207 132.376 98.5528 133.563 95.4774 135.724V135.724C89.0076 140.271 80.3809 140.271 73.9111 135.724V135.724C70.8357 133.563 67.1817 132.376 63.4231 132.317V132.317C55.5164 132.192 48.5373 127.122 45.9757 119.64V119.64C44.758 116.084 42.4997 112.976 39.4937 110.719V110.719C33.1702 105.971 30.5045 97.7662 32.8294 90.208V90.208C33.9346 86.6152 33.9346 82.7731 32.8294 79.1803V79.1803C30.5045 71.6221 33.1702 63.4177 39.4937 58.6696V58.6696C42.4997 56.4125 44.758 53.3042 45.9757 49.7479V49.7479C48.5373 42.2667 55.5164 37.1961 63.4231 37.0716V37.0716C67.1817 37.0125 70.8357 35.8252 73.9111 33.6639V33.6639Z" fill="#1054F3"/>
<mask id="mask0_17_1405" style="mask-type:alpha" maskUnits="userSpaceOnUse" x="31" y="30" width="107" height="110">
<path d="M73.9111 33.6639C80.3809 29.1171 89.0076 29.1171 95.4774 33.6639V33.6639C98.5528 35.8252 102.207 37.0125 105.965 37.0716V37.0716C113.872 37.1961 120.851 42.2667 123.413 49.7479V49.7479C124.631 53.3042 126.889 56.4125 129.895 58.6696V58.6696C136.218 63.4177 138.884 71.6221 136.559 79.1803V79.1803C135.454 82.7731 135.454 86.6152 136.559 90.208V90.208C138.884 97.7662 136.218 105.971 129.895 110.719V110.719C126.889 112.976 124.631 116.084 123.413 119.64V119.64C120.851 127.122 113.872 132.192 105.965 132.317V132.317C102.207 132.376 98.5528 133.563 95.4774 135.724V135.724C89.0076 140.271 80.3809 140.271 73.9111 135.724V135.724C70.8357 133.563 67.1817 132.376 63.4231 132.317V132.317C55.5164 132.192 48.5373 127.122 45.9757 119.64V119.64C44.758 116.084 42.4997 112.976 39.4937 110.719V110.719C33.1702 105.971 30.5045 97.7662 32.8294 90.208V90.208C33.9346 86.6152 33.9346 82.7731 32.8294 79.1803V79.1803C30.5045 71.6221 33.1702 63.4177 39.4937 58.6696V58.6696C42.4997 56.4125 44.758 53.3042 45.9757 49.7479V49.7479C48.5373 42.2667 55.5164 37.1961 63.4231 37.0716V37.0716C67.1817 37.0125 70.8357 35.8252 73.9111 33.6639V33.6639Z" fill="#4AD35A"/>
</mask>
<g mask="url(#mask0_17_1405)">
<path opacity="0.2" d="M26.0859 113.659L150.078 52.8491C169.558 109.594 135.511 158.039 89.7759 152.449C53.188 147.978 32.071 124.726 26.0859 113.659Z" fill="#315099"/>
</g>
<path d="M102.064 24.4805C98.3567 24.8882 97.3666 25.7053 95.9985 29.5646C95.9358 29.7414 95.6728 29.7044 95.6613 29.5172C95.4099 25.4303 94.6834 24.372 91.232 22.9582C91.0661 22.8902 91.1 22.6485 91.2783 22.6289C94.9857 22.2212 95.9758 21.4041 97.3439 17.5448C97.4066 17.368 97.6696 17.4049 97.6811 17.5922C97.9325 21.6791 98.659 22.7374 102.11 24.1512C102.276 24.2192 102.242 24.4609 102.064 24.4805Z" fill="#1054F3"/>
<path d="M146.481 115.696C143.976 116.723 143.448 117.491 143.266 120.458C143.257 120.594 143.066 120.621 143.021 120.493C142.028 117.691 141.309 117.098 138.617 116.802C138.488 116.787 138.463 116.612 138.584 116.563C141.089 115.536 141.617 114.768 141.799 111.801C141.808 111.665 141.999 111.638 142.044 111.766C143.037 114.568 143.756 115.161 146.448 115.457C146.577 115.472 146.602 115.647 146.481 115.696Z" fill="#1054F3"/>
<circle cx="48.1063" cy="34.3858" r="2.20205" fill="#1054F3"/>
<circle cx="133.817" cy="131.784" r="1.35511" fill="#1054F3"/>
<circle cx="29.6584" cy="146.2" r="1.3999" fill="#1054F3"/>
<circle cx="143.14" cy="46.8967" r="1.3999" fill="#1054F3"/>
<circle cx="19.9037" cy="81.1495" r="1.35511" fill="#1054F3"/>
<path d="M73.8533 85.7252L80.452 92.3239L95.535 77.241" stroke="white" stroke-width="7.381" stroke-linecap="round" stroke-linejoin="round"/>
</svg>
