<svg width="171" height="48" viewBox="0 0 171 48" fill="none" xmlns="http://www.w3.org/2000/svg">
<g clip-path="url(#clip0_11_1207)">
<g clip-path="url(#clip1_11_1207)">
<g clip-path="url(#clip2_11_1207)">
<path d="M59.8523 28.5624L59.0653 34.3131H43.1449V33.95C45.203 33.95 45.3241 32.4366 45.3241 30.1969V16.3951C45.3241 14.1554 45.203 12.6421 43.1449 12.6421V12.2788H58.6113L59.0351 17.4242H58.672C56.8257 14.0646 55.6756 13.1263 52.3159 13.1263H49.8037V22.3578H51.5896C54.5558 22.3578 55.3124 21.4802 56.0086 19.5431H56.3718V26.4136H56.0086C55.282 24.3247 54.5558 23.3262 51.5896 23.3262H49.8037V32.0432C49.8037 32.9209 50.0761 33.4657 51.0142 33.4657H52.679C55.7662 33.4657 57.3401 32.7091 59.4891 28.5624H59.8523Z" fill="black"/>
<path d="M70.1702 18.4534H74.6196V18.8166C73.7418 18.9982 72.9851 20.2391 71.8351 23.3566L67.537 34.8278H66.9317L61.9375 22.0552C61.0902 19.9668 60.6362 18.9982 59.6071 18.8166V18.4534H66.9014V18.8166C65.5394 18.9376 65.5091 19.8154 66.0539 21.238L68.8688 28.7139L70.9269 23.1145C72.0165 20.1482 71.502 19.0285 70.1702 18.8166V18.4534Z" fill="black"/>
<path d="M87.2386 30.4996C85.9977 32.588 84.1212 34.6764 80.7312 34.6764C76.1911 34.6764 73.8304 30.9839 73.8304 26.6557C73.8304 21.8432 76.9781 18.0901 81.4576 18.0901C85.2713 18.0901 87.4505 20.6931 87.2083 24.7488H78.1282C78.1282 29.4402 79.4903 32.3156 82.7591 32.3156C83.5343 32.2759 84.2906 32.0621 84.9718 31.69C85.6529 31.3179 86.2415 30.7971 86.6938 30.1662L87.2386 30.4996ZM78.1589 23.841H83.4556C83.6978 20.6025 83.2437 18.8773 81.3369 18.8773C79.2482 18.8771 78.3095 21.1471 78.1589 23.841Z" fill="black"/>
<path d="M99.282 18.3322L98.4043 22.2064H98.1016C97.7982 21.8392 97.4198 21.5412 96.9917 21.3323C96.5636 21.1235 96.0958 21.0087 95.6197 20.9957C94.9152 21.0017 94.2413 21.2843 93.7432 21.7825V30.9837C93.7432 32.9208 93.8339 33.95 95.0749 33.95V34.3131H88.1741V33.9499C89.415 33.9499 89.5058 32.9208 89.5058 30.9837V22.5695C89.5058 20.6324 88.9912 20.0877 87.9622 19.7245V19.3612L93.5011 18.1506H93.7434V20.9352C95.0145 19.1796 96.4673 18.09 98.0412 18.09C98.467 18.0852 98.8893 18.1676 99.282 18.3322Z" fill="black"/>
<path d="M109.027 30.6812C112.356 30.6812 114.172 32.134 114.172 34.7974C114.172 38.8835 109.36 41.5773 104.88 41.5773C100.976 41.5773 99.1899 39.7915 99.1899 37.915C99.1899 36.1897 100.491 35.4028 101.853 34.7369L102.338 34.5251H103.064C102.607 35.1344 102.371 35.8821 102.398 36.6437C102.398 38.8835 104.153 40.185 107.15 40.185C109.632 40.185 111.599 38.9441 111.599 36.7648C111.599 35.1909 110.51 34.1921 108.391 34.1921H102.519C100.582 34.1921 99.7345 33.1328 99.7345 31.7405C99.7345 30.3483 100.794 29.2889 102.61 28.2598C101.68 27.8717 100.892 27.2082 100.351 26.3587C99.8099 25.5091 99.5419 24.5143 99.5832 23.5079C99.5832 20.2694 102.065 18.0901 105.788 18.0901C106.823 18.0698 107.852 18.255 108.815 18.6349L114.172 18.1809L113.627 20.1479L110.631 19.8755C111.503 20.8453 111.969 22.113 111.932 23.4167C111.932 26.6856 109.48 28.8345 105.758 28.8345C104.96 28.8461 104.165 28.7441 103.397 28.5318C102.701 29.0463 102.489 29.3487 102.489 29.803C102.489 30.2873 102.822 30.6808 103.76 30.6808L109.027 30.6812ZM103.276 23.4474C103.276 26.2017 103.881 28.0479 105.758 28.0479C107.634 28.0479 108.209 26.2017 108.209 23.4474C108.209 20.693 107.634 18.8771 105.758 18.8771C103.911 18.8771 103.276 20.6931 103.276 23.4474Z" fill="black"/>
<path d="M125.761 18.3322L124.884 22.2064H124.581C124.278 21.8392 123.899 21.5412 123.471 21.3323C123.043 21.1235 122.575 21.0087 122.099 20.9957C121.395 21.0017 120.721 21.2843 120.223 21.7825V30.9837C120.223 32.9208 120.313 33.95 121.554 33.95V34.3132H114.653V33.9499C115.894 33.9499 115.985 32.9208 115.985 30.9837V22.5695C115.985 20.6324 115.471 20.0877 114.442 19.7245V19.3612L119.98 18.1506H120.223V20.9352C121.494 19.1796 122.947 18.09 124.52 18.09C124.946 18.0852 125.369 18.1676 125.761 18.3322Z" fill="black"/>
<path d="M139.168 30.4996C137.927 32.588 136.05 34.6764 132.66 34.6764C128.12 34.6764 125.759 30.9839 125.759 26.6557C125.759 21.8432 128.907 18.0901 133.387 18.0901C137.2 18.0901 139.379 20.6931 139.137 24.7488H130.057C130.057 29.4402 131.419 32.3156 134.688 32.3156C135.463 32.2759 136.219 32.062 136.901 31.6899C137.582 31.3178 138.17 30.7971 138.623 30.1662L139.168 30.4996ZM130.087 23.841H135.384C135.626 20.6025 135.172 18.8773 133.266 18.8773C131.177 18.8771 130.239 21.1471 130.087 23.841Z" fill="black"/>
<path d="M153.663 30.4996C152.422 32.588 150.545 34.6764 147.156 34.6764C142.615 34.6764 140.255 30.9839 140.255 26.6557C140.255 21.8432 143.403 18.0901 147.882 18.0901C151.696 18.0901 153.875 20.6931 153.633 24.7488H144.552C144.552 29.4402 145.914 32.3156 149.183 32.3156C149.958 32.2759 150.715 32.062 151.396 31.6899C152.077 31.3178 152.666 30.7971 153.118 30.1662L153.663 30.4996ZM144.583 23.841H149.879C150.121 20.6025 149.667 18.8773 147.761 18.8773C145.672 18.8771 144.734 21.1471 144.583 23.841Z" fill="black"/>
<path d="M169.611 30.9838C169.611 32.9209 169.701 33.95 170.942 33.95V34.3132H164.041V33.9499C165.282 33.9499 165.373 32.9209 165.373 30.9837V23.9012C165.373 21.8129 165.01 20.4811 163.043 20.4811C162.013 20.5342 161.019 20.8692 160.167 21.4496V30.9838C160.167 32.9209 160.258 33.95 161.499 33.95V34.3132H154.598V33.9499C155.839 33.9499 155.93 32.9209 155.93 30.9837V22.5696C155.93 20.6325 155.415 20.0877 154.386 19.7245V19.3613L159.925 18.1506H160.167V20.6023C161.63 19.1132 163.592 18.2183 165.676 18.0901C168.279 18.0901 169.611 19.785 169.611 22.8117V30.9838Z" fill="black"/>
<path d="M30.0535 0.391802C30.0554 0.381987 30.0554 0.371875 30.0535 0.362061V0.391802Z" fill="url(#paint0_linear_11_1207)"/>
<path d="M22.8124 19.4075C23.7485 16.4975 24.9402 13.676 26.3734 10.976C23.6059 12.6821 21.7163 20.3347 19.0975 26.495C17.6359 25.1247 15.9858 23.9706 14.1973 23.0678V22.6611C14.0684 15.3753 17.7931 11.7796 23.9977 7.3951C29.8504 3.25363 30.1478 0.694418 30.0535 0.391846C30.5495 1.34414 42.2296 25.0912 22.6983 31.6677C22.0671 30.156 21.1888 28.7598 20.0994 27.5363C21.0318 24.8333 21.875 21.9715 22.8124 19.4075Z" fill="#009840"/>
<path d="M22.2122 40.4762C22.2122 40.4762 21.1161 37.2475 17.1434 33.0368C11.3306 26.8471 6.85199 26.3509 6.85199 26.3509C24.7962 37.3069 20.8284 48.0001 20.8284 48.0001C20.8284 37.8724 -0.00231934 44.6622 -0.00231934 16.134C-0.00231934 16.134 3.96546 19.1399 13.4236 23.8959C25.689 30.0658 22.2122 40.4762 22.2122 40.4762Z" fill="#009840"/>
<path d="M0.0572186 0C0.0572186 0 15.0355 5.6541 13.3195 18.6336C12.0196 14.1092 9.43541 10.0588 5.88009 6.97336C5.88009 6.97336 12.7741 17.3887 11.4398 21.297C11.4596 21.297 -0.498198 15.9901 0.0572186 0Z" fill="#009840"/>
</g>
</g>
</g>
<defs>
<linearGradient id="paint0_linear_11_1207" x1="22.1499" y1="-13.2664" x2="48.7984" y2="32.7349" gradientUnits="userSpaceOnUse">
<stop stop-color="#80CD7F"/>
<stop offset="1" stop-color="#2F9200"/>
</linearGradient>
<clipPath id="clip0_11_1207">
<rect width="170.94" height="48" fill="white"/>
</clipPath>
<clipPath id="clip1_11_1207">
<rect width="170.94" height="48" fill="white"/>
</clipPath>
<clipPath id="clip2_11_1207">
<rect width="170.945" height="48" fill="white" transform="translate(-0.00231934)"/>
</clipPath>
</defs>
</svg>
