<svg width="171" height="107" viewBox="0 0 171 107" fill="none" xmlns="http://www.w3.org/2000/svg">
<rect x="53.823" y="0.5" width="63" height="63" rx="19.5" fill="#1054F3" fill-opacity="0.1"/>
<rect x="53.823" y="0.5" width="63" height="63" rx="19.5" stroke="#1054F3"/>
<path d="M87.3476 44.112C87.3835 40.4406 86.4527 37.455 85.2687 37.4434C84.0846 37.4319 83.0957 40.3988 83.0598 44.0701C83.0239 47.7416 83.9547 50.7272 85.1387 50.7388C86.3228 50.7504 87.3118 47.7835 87.3476 44.112Z" fill="#1054F3"/>
<path d="M80.4806 43.2782C82.4958 40.2091 83.3271 37.1942 82.3374 36.5443C81.3475 35.8944 78.9114 37.8555 76.8962 40.9246C74.881 43.9938 74.0497 47.0086 75.0394 47.6586C76.0293 48.3085 78.4653 46.3474 80.4806 43.2782Z" fill="#1054F3"/>
<path d="M75.1463 38.8746C78.5011 37.3824 80.8304 35.2957 80.3491 34.2138C79.8679 33.1319 76.7583 33.4645 73.4036 34.9568C70.0489 36.4489 67.7195 38.5356 68.2008 39.6176C68.682 40.6995 71.7916 40.3668 75.1463 38.8746Z" fill="#1054F3"/>
<path d="M79.9466 31.1792C80.1267 30.0089 77.331 28.6074 73.7022 28.0488C70.0733 27.4903 66.9855 27.9863 66.8054 29.1566C66.6252 30.3269 69.421 31.7284 73.0498 32.2869C76.6787 32.8455 79.7665 32.3495 79.9466 31.1792Z" fill="#1054F3"/>
<path d="M81.2494 28.3919C82.0336 27.5047 80.439 24.8144 77.6879 22.383C74.9368 19.9515 72.0709 18.6997 71.2868 19.587C70.5026 20.4743 72.0972 23.1646 74.8483 25.596C77.5994 28.0275 80.4654 29.2792 81.2494 28.3919Z" fill="#1054F3"/>
<path d="M83.8441 26.7621C84.9835 26.4397 85.0967 23.3143 84.097 19.7815C83.0973 16.2486 81.3632 13.646 80.2239 13.9684C79.0845 14.2908 78.9713 17.4161 79.971 20.949C80.9707 24.4818 82.7048 27.0845 83.8441 26.7621Z" fill="#1054F3"/>
<path d="M90.8898 21.0592C91.959 17.5467 91.9075 14.4198 90.7747 14.075C89.6419 13.7302 87.8568 16.2981 86.7876 19.8105C85.7185 23.323 85.77 26.4499 86.9028 26.7947C88.0356 27.1395 89.8207 24.5717 90.8898 21.0592Z" fill="#1054F3"/>
<path d="M95.9241 25.8056C98.7223 23.4284 100.369 20.7697 99.6024 19.8673C98.8358 18.9649 95.9459 20.1605 93.1479 22.5376C90.3497 24.9148 88.7029 27.5735 89.4695 28.4759C90.2362 29.3783 93.126 28.1828 95.9241 25.8056Z" fill="#1054F3"/>
<path d="M97.5887 32.521C101.228 32.0342 104.051 30.6881 103.894 29.5144C103.737 28.3408 100.659 27.7841 97.0201 28.2709C93.3809 28.7578 90.5581 30.1038 90.7151 31.2775C90.8721 32.4511 93.9495 33.0079 97.5887 32.521Z" fill="#1054F3"/>
<path d="M102.283 39.953C102.786 38.8809 100.498 36.7486 97.1734 35.1905C93.8488 33.6325 90.7464 33.2386 90.2439 34.3108C89.7414 35.383 92.0292 37.5153 95.3538 39.0733C98.6784 40.6313 101.781 41.0253 102.283 39.953Z" fill="#1054F3"/>
<path d="M95.2901 47.8638C96.2925 47.2335 95.5208 44.2028 93.5665 41.0946C91.6122 37.9863 89.2152 35.9776 88.2128 36.6078C87.2104 37.2381 87.9821 40.2688 89.9364 43.377C91.8908 46.4853 94.2877 48.4941 95.2901 47.8638Z" fill="#1054F3"/>
<path d="M7.2981 105.769V85.3143H0V82H18.2118V85.3143H10.9137V105.769H7.2981Z" fill="#1054F3"/>
<path d="M24.3855 105.769L17.8909 87.959H21.6738L26.5281 102.153L31.3823 87.959H35.1988L28.6706 105.769H24.3855Z" fill="#1054F3"/>
<path d="M46.907 105.769V82H55.4438C58.3005 82 60.4542 82.5133 61.9049 83.54C63.3556 84.5666 64.081 86.1959 64.081 88.4277C64.081 89.432 63.8689 90.3136 63.4449 91.0724C63.0209 91.8312 62.3959 92.4338 61.5702 92.8802C60.7667 93.3042 59.807 93.5274 58.6911 93.5498L58.6576 93.4158C60.6886 93.4605 62.262 94.0184 63.3779 95.0897C64.5162 96.1387 65.0853 97.5224 65.0853 99.2409C65.0853 101.406 64.36 103.035 62.9093 104.129C61.4586 105.222 59.3941 105.769 56.7159 105.769H46.907ZM50.5226 102.522H56.6155C58.1108 102.522 59.2714 102.22 60.0971 101.618C60.9452 100.993 61.3693 100.089 61.3693 98.9062C61.3693 97.7456 60.9452 96.8417 60.0971 96.1945C59.2714 95.5472 58.1108 95.2236 56.6155 95.2236H50.5226V102.522ZM50.5226 92.1437H55.3768C56.9614 92.1437 58.1889 91.8424 59.0593 91.2398C59.9298 90.6372 60.365 89.7891 60.365 88.6955C60.365 87.535 59.9409 86.6757 59.0928 86.1177C58.267 85.5375 57.0284 85.2473 55.3768 85.2473H50.5226V92.1437Z" fill="#1054F3"/>
<path d="M75.0535 106.171C73.268 106.171 71.8397 105.579 70.7684 104.396C69.7194 103.191 69.1949 101.529 69.1949 99.4083V87.959H72.7435V98.5044C72.7435 100.111 73.0225 101.294 73.5805 102.053C74.1384 102.812 74.9865 103.191 76.1248 103.191C77.4192 103.191 78.4236 102.778 79.1378 101.953C79.8743 101.105 80.2425 99.9216 80.2425 98.404V87.959H83.7911V105.769H80.4769L80.4099 101.116L80.9121 101.317C80.5996 102.879 79.9412 104.084 78.9369 104.932C77.9326 105.758 76.6381 106.171 75.0535 106.171Z" fill="#1054F3"/>
<path d="M88.8107 105.769V87.959H92.058L92.1919 92.7128L91.7567 92.4785C91.9576 91.3179 92.337 90.3805 92.8949 89.6664C93.4529 88.9522 94.1336 88.4277 94.9371 88.0929C95.7405 87.7358 96.6109 87.5573 97.5483 87.5573C98.8874 87.5573 99.9922 87.8586 100.863 88.4612C101.755 89.0414 102.425 89.8449 102.871 90.8715C103.34 91.8759 103.574 93.0253 103.574 94.3197V105.769H100.026V95.391C100.026 94.3421 99.9141 93.4605 99.6909 92.7463C99.4677 92.0321 99.0994 91.4853 98.5861 91.1059C98.0728 90.7265 97.4032 90.5368 96.5775 90.5368C95.3276 90.5368 94.3121 90.9497 93.531 91.7754C92.7499 92.6012 92.3593 93.8064 92.3593 95.391V105.769H88.8107Z" fill="#1054F3"/>
<path d="M114.525 106.171C113.007 106.171 111.679 105.791 110.541 105.033C109.425 104.274 108.566 103.202 107.963 101.819C107.383 100.413 107.093 98.7611 107.093 96.864C107.093 94.967 107.394 93.3266 107.997 91.9428C108.599 90.5368 109.459 89.4543 110.574 88.6955C111.69 87.9367 113.007 87.5573 114.525 87.5573C115.752 87.5573 116.846 87.8139 117.806 88.3273C118.765 88.8406 119.491 89.5548 119.982 90.4698V82H123.53V105.769H120.216L120.116 103.091C119.625 104.051 118.877 104.809 117.873 105.367C116.891 105.903 115.775 106.171 114.525 106.171ZM115.462 103.091C116.422 103.091 117.237 102.845 117.906 102.354C118.576 101.863 119.089 101.149 119.446 100.212C119.803 99.2744 119.982 98.1585 119.982 96.864C119.982 95.5249 119.803 94.3978 119.446 93.4828C119.089 92.5454 118.576 91.8424 117.906 91.3737C117.237 90.8827 116.422 90.6372 115.462 90.6372C114.034 90.6372 112.896 91.1952 112.047 92.3111C111.199 93.4047 110.775 94.9223 110.775 96.864C110.775 98.7834 111.199 100.301 112.047 101.417C112.896 102.533 114.034 103.091 115.462 103.091Z" fill="#1054F3"/>
<path d="M132.187 105.769C131.027 105.769 130.089 105.468 129.375 104.865C128.661 104.263 128.304 103.303 128.304 101.986V82H131.852V101.651C131.852 102.053 131.953 102.354 132.154 102.555C132.377 102.756 132.689 102.857 133.091 102.857H134.497V105.769H132.187Z" fill="#1054F3"/>
<path d="M144.855 106.171C143.114 106.171 141.607 105.791 140.335 105.033C139.085 104.274 138.115 103.191 137.423 101.785C136.753 100.379 136.418 98.7388 136.418 96.864C136.418 94.9893 136.753 93.36 137.423 91.9763C138.115 90.5703 139.085 89.4878 140.335 88.729C141.585 87.9478 143.058 87.5573 144.754 87.5573C146.361 87.5573 147.778 87.9367 149.006 88.6955C150.233 89.432 151.182 90.5033 151.851 91.9094C152.543 93.3154 152.889 95.0116 152.889 96.9979V97.9018H140.101C140.19 99.6427 140.648 100.948 141.473 101.819C142.322 102.689 143.46 103.124 144.888 103.124C145.937 103.124 146.808 102.879 147.499 102.388C148.191 101.897 148.671 101.238 148.939 100.413L152.621 100.647C152.153 102.299 151.227 103.638 149.843 104.664C148.481 105.669 146.819 106.171 144.855 106.171ZM140.101 95.2236H149.14C149.028 93.639 148.571 92.4673 147.767 91.7085C146.986 90.9497 145.982 90.5702 144.754 90.5702C143.482 90.5702 142.433 90.972 141.607 91.7754C140.804 92.5566 140.302 93.706 140.101 95.2236Z" fill="#1054F3"/>
<path d="M163.348 106.171C161.674 106.171 160.257 105.914 159.096 105.401C157.958 104.887 157.076 104.184 156.452 103.292C155.827 102.377 155.47 101.328 155.38 100.145L159.029 99.9774C159.208 100.959 159.632 101.741 160.301 102.321C160.971 102.901 161.986 103.191 163.348 103.191C164.464 103.191 165.345 103.013 165.993 102.656C166.64 102.299 166.963 101.729 166.963 100.948C166.963 100.524 166.852 100.167 166.629 99.877C166.428 99.5645 166.026 99.3079 165.423 99.107C164.821 98.8838 163.928 98.6718 162.745 98.4709C160.982 98.1362 159.598 97.7456 158.594 97.2992C157.59 96.8529 156.876 96.2838 156.452 95.5919C156.027 94.9 155.815 94.0631 155.815 93.0811C155.815 91.4518 156.418 90.1239 157.623 89.0972C158.851 88.0706 160.614 87.5573 162.913 87.5573C164.453 87.5573 165.747 87.8251 166.796 88.3607C167.845 88.8741 168.66 89.5771 169.24 90.4698C169.843 91.3402 170.222 92.3222 170.378 93.4158L166.729 93.6167C166.618 92.9918 166.394 92.4562 166.06 92.0098C165.747 91.5411 165.323 91.184 164.787 90.9385C164.252 90.6707 163.616 90.5368 162.879 90.5368C161.741 90.5368 160.893 90.76 160.335 91.2063C159.777 91.6527 159.498 92.233 159.498 92.9472C159.498 93.4828 159.621 93.918 159.866 94.2528C160.134 94.5876 160.558 94.8665 161.138 95.0897C161.719 95.2906 162.489 95.4691 163.448 95.6254C165.301 95.9378 166.751 96.3284 167.8 96.7971C168.849 97.2434 169.586 97.8014 170.01 98.4709C170.434 99.1405 170.646 99.9551 170.646 100.915C170.646 102.031 170.334 102.979 169.709 103.76C169.084 104.542 168.224 105.144 167.131 105.568C166.037 105.97 164.776 106.171 163.348 106.171Z" fill="#1054F3"/>
</svg>
