<svg width="145" height="145" viewBox="0 0 145 145" fill="none" xmlns="http://www.w3.org/2000/svg">
<circle cx="72.4057" cy="72.4057" r="72.4057" fill="#0A192E"/>
<mask id="mask0_28_1682" style="mask-type:alpha" maskUnits="userSpaceOnUse" x="0" y="0" width="145" height="145">
<circle cx="72.4057" cy="72.4057" r="72.4057" fill="#524CA9"/>
</mask>
<g mask="url(#mask0_28_1682)">
<path d="M44.1674 105.712H10.1368H7.9646V157.482H44.1674V105.712Z" fill="#315099"/>
<path d="M44.5295 90.5071L8.32666 106.074H44.5295L64.8031 90.5071H44.5295Z" fill="#1054F3"/>
<path fill-rule="evenodd" clip-rule="evenodd" d="M50.684 63.787C50.684 51.7101 60.6136 41.9954 72.7668 41.9954C84.9216 41.9954 94.8514 51.71 94.8514 63.787V74.5779H89.059V63.787C89.059 54.9928 81.8069 47.7878 72.7668 47.7878C63.7287 47.7878 56.4764 54.9926 56.4764 63.787V84.324H50.684V63.787Z" fill="white"/>
<path d="M103.548 74.5779C103.959 74.5779 104.307 74.8847 104.36 75.2937L113.677 148.431H31.8585L41.1749 75.2947C41.2 75.0966 41.296 74.914 41.4454 74.782C41.595 74.6499 41.7882 74.5776 41.9874 74.5779H84.7804L78.6798 80.4832C78.3709 80.7822 78.1984 81.1863 78.1984 81.6082V96.8787C78.1985 97.3008 78.3716 97.7059 78.6798 98.0046C78.9881 98.3033 79.4067 98.471 79.8429 98.4714H94.6534C95.09 98.4714 95.5088 98.3035 95.8175 98.0046C96.126 97.7059 96.2998 97.301 96.2999 96.8787V81.6082C96.2996 81.3991 96.2559 81.1918 96.173 80.9988C96.09 80.8059 95.9685 80.6306 95.8156 80.4832L89.7169 74.5779H103.548Z" fill="white"/>
</g>
<rect x="99.9198" y="62.9929" width="11.5849" height="2.89623" rx="1.44811" fill="#DBD9FF"/>
<rect width="11.5849" height="2.89623" rx="1.44811" transform="matrix(-1 0 0 1 45.6156 62.9929)" fill="#DBD9FF"/>
<rect x="97.7477" y="59.9928" width="11.5849" height="2.89623" rx="1.44811" transform="rotate(-60 97.7477 59.9928)" fill="#DBD9FF"/>
<rect width="11.5849" height="2.89623" rx="1.44811" transform="matrix(-0.5 -0.866025 -0.866025 0.5 47.7877 59.9928)" fill="#DBD9FF"/>
</svg>
