<svg width="199" height="200" viewBox="0 0 199 200" fill="none" xmlns="http://www.w3.org/2000/svg">
<path d="M57.4107 65.8782L41.0003 74.6192L37.3581 73.0428C35.7892 72.3782 35.6685 70.1422 37.1372 69.3078L51.4964 61.1495L57.4107 65.8782Z" fill="#915837"/>
<path d="M38.7006 71.0862L51.2406 63.9906L53.1353 65.5041L41.6796 72.3263L38.7006 71.0862Z" fill="#4D2A15"/>
<path d="M2.70224 184.929L76.0404 146.552L59.0373 137.597L2.16193 167.269L2.70224 184.929Z" fill="#2B2B2B"/>
<path d="M1.76217 183.878L75.1003 145.501L58.0976 136.546L1.22186 166.218L1.76217 183.878Z" fill="#3B3B3B"/>
<path d="M69.6433 198.424L38.4025 182.064C37.129 181.392 36.0963 179.756 36.0963 178.411L36.2355 71.3243C36.2355 71.3243 36.1573 72.1484 36.823 72.6499C37.6167 73.2475 41.0346 74.4761 41.0346 74.4761L40.9485 66.4517L75.0483 48.2537L75.0467 198.922C75.0467 200.267 70.9171 199.096 69.6433 198.424Z" fill="#7A4321"/>
<path d="M187.807 139.887C190.46 138.472 192.467 134.459 192.424 131.65L192.424 131.61L192.426 25.5807C192.426 19.9105 185.6 16.4595 180.351 19.4758L75.087 79.9567L74.3039 199.534C74.3039 199.534 77.8501 198.879 83.6311 195.89C110.732 181.878 187.807 139.887 187.807 139.887Z" fill="#9C5C36"/>
<path d="M65.5818 103.137L65.5932 99.3687C65.5976 98.0401 64.5764 96.4394 63.3282 95.7802L45.8521 86.5516C44.6039 85.8924 43.5762 86.411 43.5724 87.7401L43.5604 91.5078C43.5566 92.8195 44.5772 94.4371 45.8254 95.0963L63.3018 104.325C64.5502 104.984 65.5777 104.449 65.5818 103.137Z" fill="#4D2A15"/>
<path d="M65.0684 103.386L47.5927 94.1574C46.3445 93.4982 45.3235 91.8807 45.3276 90.5688L45.339 86.8011C45.3409 86.1427 45.5943 85.6836 46.0006 85.4673L44.2339 86.4066C43.8274 86.6224 43.5745 87.082 43.5726 87.7402L43.5606 91.5079C43.5568 92.8195 44.5775 94.4372 45.8257 95.0964L63.302 104.325C63.93 104.657 64.5025 104.686 64.9164 104.466L66.6828 103.527C66.2689 103.747 65.6965 103.718 65.0684 103.386Z" fill="#D6D6D6"/>
<path d="M65.0998 93.3273L47.6235 84.0987C46.593 83.5542 45.6579 83.5043 44.9827 83.8632L43.216 84.8023C43.8915 84.4434 44.8263 84.4935 45.8571 85.0378L63.3328 94.2664C65.3813 95.3485 67.0406 97.9768 67.0335 100.13L67.0221 103.897C67.0188 104.967 66.605 105.72 65.9385 106.074L67.7049 105.135C68.3717 104.781 68.7853 104.028 68.7885 102.958L68.8005 99.1905C68.8071 97.0375 67.1483 94.4095 65.0998 93.3273Z" fill="#D6D6D6"/>
<path d="M63.3328 94.2664C65.3815 95.3485 67.0403 97.9765 67.0335 100.13L67.0221 103.897C67.0156 106.05 65.3456 106.921 63.2969 105.839L45.8211 96.6101C43.7726 95.5282 42.1138 92.8999 42.1204 90.7469L42.1324 86.9792C42.1389 84.8264 43.8089 83.9561 45.8573 85.0378L63.3328 94.2664ZM65.5818 103.137L65.5933 99.3687C65.5976 98.0401 64.5764 96.4394 63.3282 95.7802L45.8521 86.5515C44.604 85.8923 43.5762 86.411 43.5724 87.7401L43.5604 91.5078C43.5566 92.8194 44.5773 94.4371 45.8254 95.0963L63.3018 104.325C64.5502 104.984 65.5777 104.449 65.5818 103.137Z" fill="#ADADAD"/>
<path d="M65.0244 180.906C65.2113 182.877 65.3519 188.521 60.7136 192.763C58.5987 194.698 56.5265 194.89 56.5265 194.89L46.0658 91.9099C46.0658 91.9099 46.2535 90.916 47.5933 90.274C48.4159 89.8797 49.579 90.4078 49.579 90.4078L63.1043 97.5502C64.3328 98.199 65.0892 99.3977 65.0892 100.695L65.0244 180.906Z" fill="#2B2B2B"/>
<path d="M25.2988 196.323L38.6398 186.922C43.0877 184.644 45.8426 180.346 45.8426 175.683L45.8437 92.5217C45.8437 91.5712 46.9685 90.9773 47.8685 91.4523L61.2005 98.4928C62.4438 99.1492 63.2097 100.362 63.2097 101.675L63.2083 183.932C63.2083 188.397 60.6801 192.543 56.5268 194.89L25.2988 196.323Z" fill="#3B3B3B"/>
<path d="M192.073 98.9784L74.5862 161.443V156.443V148.176L192.073 85.9871L192.073 98.9784Z" fill="#7A4321"/>
<path d="M107.673 185.276C107.673 185.276 105.949 185.527 105.479 184.632C105.177 184.056 105.25 182.446 105.25 182.446V165.514L106.974 166.231L107.673 185.276Z" fill="#2B2B2B"/>
<path d="M119.835 178.926L107.939 185.208C107.51 185.435 106.974 185.151 106.974 184.699V166.231L120.722 158.971V177.521C120.722 178.101 120.383 178.637 119.835 178.926Z" fill="#3B3B3B"/>
<path d="M119.426 146.876C118.953 146.625 118.299 146.661 117.576 147.043L105.598 153.368C104.162 154.126 103.003 155.963 103.007 157.472L103.042 168.609C103.044 169.359 103.334 169.886 103.8 170.134L106.81 171.734C106.343 171.486 106.054 170.959 106.051 170.209L106.017 159.072C106.012 157.563 107.172 155.726 108.608 154.968L120.585 148.642C121.308 148.261 121.962 148.225 122.435 148.476L119.426 146.876Z" fill="#F2F0EB"/>
<path d="M120.116 148.499C121.552 147.741 122.903 148.267 122.908 149.776L122.758 160.995C122.763 162.504 121.603 164.341 120.167 165.099L108.66 171.568C107.224 172.326 105.586 171.575 105.582 170.066L105.547 158.928C105.543 157.419 106.702 155.582 108.138 154.824L120.116 148.499Z" fill="white"/>
<path d="M120.586 148.642C122.022 147.884 123.189 148.492 123.193 150.001L123.228 161.139C123.233 162.648 122.073 164.485 120.637 165.243L108.66 171.568C107.224 172.326 106.056 171.718 106.052 170.209L106.017 159.072C106.013 157.563 107.172 155.726 108.608 154.968L120.586 148.642Z" fill="#DEDCD7"/>
<path d="M106.974 155.34L105.25 154.623V135.136L118.998 127.877L106.974 155.34Z" fill="#2B2B2B"/>
<path d="M120.722 148.08L106.974 155.34V135.853L120.722 128.593L120.722 148.08Z" fill="#3B3B3B"/>
<path d="M166.055 154.373C166.055 154.373 164.332 154.624 163.861 153.728C163.559 153.152 163.633 151.543 163.633 151.543L163.632 134.611L165.356 135.327L166.055 154.373Z" fill="#2B2B2B"/>
<path d="M178.063 148.104L166.321 154.305C165.892 154.531 165.356 154.248 165.356 153.795L165.356 135.327L179.104 128.068L179.104 146.455C179.104 147.136 178.707 147.764 178.063 148.104Z" fill="#3B3B3B"/>
<path d="M177.808 115.973C177.335 115.722 176.681 115.758 175.958 116.139L163.981 122.464C162.545 123.222 161.386 125.059 161.39 126.568L161.424 137.706C161.427 138.456 161.716 138.983 162.183 139.231L165.192 140.831C164.726 140.582 164.437 140.055 164.434 139.305L164.4 128.168C164.395 126.659 165.554 124.822 166.99 124.064L178.968 117.739C179.691 117.357 180.345 117.322 180.818 117.573L177.808 115.973Z" fill="#F2F0EB"/>
<path d="M178.498 117.595C179.934 116.837 181.285 117.363 181.29 118.872L181.14 130.092C181.145 131.601 179.985 133.438 178.55 134.196L167.042 140.665C165.606 141.423 163.969 140.672 163.964 139.162L163.93 128.025C163.925 126.516 165.085 124.679 166.52 123.921L178.498 117.595Z" fill="white"/>
<path d="M178.968 117.739C180.404 116.981 181.571 117.589 181.575 119.098L181.61 130.235C181.615 131.744 180.455 133.581 179.019 134.34L167.042 140.665C165.606 141.423 164.439 140.815 164.434 139.306L164.399 128.168C164.395 126.659 165.554 124.822 166.99 124.064L178.968 117.739Z" fill="#DEDCD7"/>
<path d="M165.356 124.437L163.633 123.72L163.632 104.233L177.38 96.9733L165.356 124.437Z" fill="#2B2B2B"/>
<path d="M179.104 117.177L165.356 124.437L165.356 104.949L179.104 97.6898L179.104 117.177Z" fill="#3B3B3B"/>
<path d="M195.264 22.7187C192.575 15.9583 188.519 11.0367 185.147 7.82354C181.79 4.61906 179.118 3.10679 179.022 3.03925C179.022 3.03925 175.172 0.672655 170.899 0.12736C163.925 -0.762856 155.505 3.30542 155.505 3.30542C155.505 3.30542 56.081 54.6673 47.3974 59.5732C42.0708 62.582 39.0161 66.5942 39.9562 67.454C40.2442 67.718 41.4183 65.3048 44.8645 64.9225C46.0802 64.7876 49.6744 65.7701 49.6744 65.7701L55.359 68.7717C55.4549 68.8392 58.127 70.3515 61.4833 73.556C64.8557 76.7692 68.9123 81.6908 71.6002 88.4511C73.3977 92.9553 74.5513 98.2146 74.5328 104.253C74.4917 117.493 74.2015 131.279 74.1154 141.68C73.9511 161.454 87.5444 151.813 87.5444 151.813L191.752 96.4349C191.752 96.4349 197.191 94.5839 197.567 86.989C198.049 77.2644 198.138 57.3349 198.196 38.5203C198.215 32.4822 197.061 27.2229 195.264 22.7187Z" fill="url(#paint0_linear_11_1734)"/>
<path d="M155.993 5.32465C155.894 5.32465 155.794 5.28054 155.732 5.20104C155.636 5.0687 155.671 4.88902 155.813 4.79755C156.067 4.63855 156.328 4.48553 156.592 4.34397C156.743 4.253 156.933 4.30559 157.023 4.44416C157.114 4.58247 157.062 4.75917 156.914 4.83892C156.663 4.97425 156.415 5.12154 156.173 5.27456C156.119 5.30721 156.054 5.32465 155.993 5.32465Z" fill="#D4D4D4"/>
<path d="M80.8986 151.545C80.6634 151.545 80.4574 151.524 80.261 151.486C80.0934 151.45 79.9841 151.294 80.0228 151.138C80.0648 150.985 80.2223 150.906 80.4027 150.92C80.8242 151.017 81.3912 150.976 82.0315 150.814C82.1895 150.773 82.3726 150.864 82.4179 151.02C82.4631 151.174 82.3598 151.332 82.1928 151.374C81.7261 151.486 81.2879 151.545 80.8986 151.545ZM83.7996 150.791C83.6835 150.791 83.5707 150.732 83.5159 150.629C83.4388 150.487 83.5031 150.314 83.6609 150.243C84.4077 149.907 84.9712 149.565 85.1772 149.433C85.3221 149.348 85.5189 149.38 85.6183 149.506C85.7148 149.639 85.6796 149.818 85.5379 149.91C85.3191 150.048 84.7265 150.408 83.938 150.761C83.8928 150.782 83.8475 150.791 83.7996 150.791ZM78.9537 150.505C78.8507 150.505 78.7509 150.458 78.6899 150.375C78.3935 149.957 78.1264 149.433 77.9008 148.815C77.8461 148.664 77.936 148.499 78.1006 148.449C78.2649 148.405 78.4417 148.482 78.4995 148.632C78.7087 149.203 78.9504 149.683 79.2174 150.057C79.3141 150.193 79.2722 150.37 79.1275 150.458C79.073 150.49 79.015 150.505 78.9537 150.505ZM86.8837 149.088C86.7741 149.088 86.6681 149.038 86.6101 148.944C86.5232 148.806 86.5747 148.629 86.7262 148.549L88.2842 147.722C88.4259 147.64 88.6253 147.683 88.7158 147.828C88.8024 147.966 88.7512 148.143 88.5997 148.223L87.0417 149.05C86.9932 149.077 86.9384 149.088 86.8837 149.088ZM90.0037 147.431C89.8942 147.431 89.7882 147.381 89.7302 147.286C89.6433 147.148 89.6948 146.971 89.8463 146.891L91.4045 146.064C91.5462 145.985 91.7457 146.029 91.8361 146.17C91.9228 146.308 91.8713 146.485 91.72 146.565L90.162 147.392C90.113 147.418 90.0585 147.431 90.0037 147.431ZM77.7463 147.418C77.5984 147.418 77.4665 147.324 77.4374 147.186C77.3311 146.682 77.2376 146.129 77.1668 145.534C77.1477 145.375 77.2701 145.233 77.4436 145.216C77.624 145.174 77.7752 145.31 77.7916 145.469C77.8624 146.049 77.9523 146.588 78.0556 147.074C78.0907 147.23 77.9782 147.383 77.8076 147.413L77.7463 147.418ZM93.1203 145.775C93.0107 145.775 92.9047 145.725 92.8467 145.631C92.7598 145.493 92.8116 145.316 92.9628 145.237L94.5243 144.406C94.666 144.324 94.8655 144.368 94.9559 144.512C95.0426 144.651 94.9911 144.827 94.8398 144.907L93.2783 145.737C93.2295 145.764 93.175 145.775 93.1203 145.775ZM77.3488 144.144C77.1812 144.144 77.0349 144.023 77.0254 143.87C76.9965 143.352 76.9802 142.801 76.9802 142.206C76.9802 142.047 77.1218 141.917 77.2957 141.917C77.4695 141.917 77.6112 142.047 77.6112 142.206C77.6112 142.789 77.6273 143.334 77.6564 143.84C77.666 144 77.5226 144.135 77.3488 144.144ZM96.2401 144.117C96.1305 144.117 96.0245 144.067 95.9665 143.973C95.8796 143.835 95.9314 143.658 96.0826 143.578L97.6406 142.751C97.7823 142.672 97.9853 142.716 98.0722 142.857C98.1588 142.996 98.1073 143.172 97.9561 143.252L96.3978 144.079C96.3496 144.106 96.2948 144.117 96.2401 144.117ZM99.3566 142.459C99.2471 142.459 99.1408 142.406 99.083 142.315C98.9958 142.177 99.0476 142 99.1991 141.921L100.761 141.093C100.902 141.01 101.105 141.061 101.192 141.199C101.279 141.337 101.227 141.514 101.076 141.594L99.5149 142.421C99.4661 142.448 99.4114 142.459 99.3566 142.459ZM77.3022 140.846C77.1284 140.843 76.9834 140.713 76.9867 140.554C76.993 140.012 76.9995 139.462 77.0025 138.902C77.0025 138.746 77.1458 138.616 77.3197 138.616C77.4938 138.616 77.6335 138.746 77.6335 138.908C77.6305 139.467 77.624 140.018 77.6177 140.56C77.6145 140.719 77.4761 140.846 77.3022 140.846ZM102.476 140.805C102.367 140.805 102.264 140.755 102.203 140.66C102.116 140.525 102.167 140.348 102.319 140.266L103.877 139.435C104.022 139.352 104.215 139.397 104.308 139.541C104.395 139.677 104.344 139.853 104.192 139.936L102.634 140.766C102.586 140.793 102.531 140.805 102.476 140.805ZM105.596 139.147C105.487 139.147 105.384 139.096 105.323 139.002C105.236 138.867 105.287 138.69 105.439 138.608L106.997 137.777C107.142 137.697 107.335 137.742 107.429 137.883C107.515 138.019 107.464 138.196 107.313 138.278L105.754 139.108C105.706 139.135 105.651 139.147 105.596 139.147ZM77.3409 137.547C77.1671 137.544 77.0221 137.415 77.0254 137.256L77.0445 135.607C77.0477 135.448 77.1861 135.321 77.36 135.321C77.5341 135.324 77.6788 135.454 77.6755 135.613L77.6564 137.262C77.6532 137.421 77.5147 137.547 77.3409 137.547ZM108.713 137.488C108.603 137.488 108.497 137.438 108.439 137.344C108.352 137.206 108.404 137.029 108.556 136.949L110.113 136.122C110.255 136.04 110.455 136.084 110.545 136.228C110.632 136.366 110.58 136.543 110.429 136.623L108.871 137.45C108.822 137.477 108.768 137.488 108.713 137.488ZM111.833 135.831C111.723 135.831 111.617 135.781 111.559 135.686C111.472 135.548 111.524 135.371 111.675 135.292L113.234 134.464C113.375 134.385 113.575 134.429 113.665 134.57C113.752 134.708 113.7 134.885 113.549 134.965L111.991 135.792C111.942 135.819 111.888 135.831 111.833 135.831ZM114.949 134.175C114.84 134.175 114.734 134.125 114.676 134.031C114.589 133.893 114.641 133.716 114.792 133.637L116.353 132.806C116.495 132.724 116.694 132.768 116.784 132.912C116.871 133.051 116.82 133.227 116.669 133.307L115.107 134.137C115.059 134.164 115.004 134.175 114.949 134.175ZM77.3829 133.961L77.0673 133.922C77.0736 133.389 77.0802 132.85 77.0897 132.305C77.093 132.15 77.2346 132.023 77.4052 132.023C77.6207 132.02 77.724 132.152 77.7207 132.317C77.7112 132.856 77.7047 133.395 77.6984 133.928L77.3829 133.961ZM118.069 132.518C117.96 132.518 117.854 132.467 117.796 132.373C117.709 132.235 117.76 132.058 117.911 131.979L119.47 131.151C119.612 131.072 119.815 131.116 119.901 131.257C119.988 131.396 119.937 131.573 119.785 131.652L118.227 132.479C118.179 132.506 118.124 132.518 118.069 132.518ZM121.186 130.859C121.076 130.859 120.97 130.807 120.912 130.715C120.825 130.577 120.877 130.4 121.028 130.321L122.59 129.493C122.731 129.411 122.934 129.461 123.021 129.599C123.108 129.738 123.056 129.914 122.905 129.994L121.344 130.821C121.295 130.848 121.24 130.859 121.186 130.859ZM77.4246 130.662L77.109 130.624C77.1153 130.091 77.1218 129.552 77.1314 129.007C77.1346 128.851 77.2796 128.724 77.4502 128.724C77.624 128.727 77.7657 128.857 77.7624 129.019C77.7529 129.558 77.7463 130.097 77.7401 130.63L77.4246 130.662ZM124.306 129.204C124.196 129.204 124.093 129.154 124.032 129.06C123.945 128.925 123.996 128.748 124.148 128.666L125.706 127.835C125.851 127.753 126.044 127.797 126.138 127.941C126.225 128.077 126.173 128.253 126.022 128.336L124.464 129.166C124.415 129.193 124.36 129.204 124.306 129.204ZM127.426 127.547C127.316 127.547 127.213 127.497 127.152 127.403C127.065 127.267 127.116 127.09 127.268 127.008L128.826 126.177C128.971 126.098 129.164 126.142 129.258 126.284C129.345 126.419 129.293 126.596 129.142 126.678L127.583 127.508C127.535 127.535 127.48 127.547 127.426 127.547ZM77.4728 127.364L77.1573 127.326C77.1638 126.793 77.1701 126.254 77.1799 125.712C77.1829 125.553 77.318 125.412 77.5017 125.429C77.6755 125.432 77.8139 125.562 77.8109 125.724C77.8011 126.259 77.7948 126.799 77.7883 127.332L77.4728 127.364ZM130.542 125.889C130.433 125.889 130.326 125.838 130.268 125.744C130.181 125.606 130.233 125.429 130.384 125.35L131.943 124.522C132.085 124.44 132.284 124.484 132.374 124.628C132.461 124.767 132.41 124.943 132.258 125.023L130.7 125.85C130.652 125.877 130.597 125.889 130.542 125.889ZM133.662 124.231C133.552 124.231 133.446 124.181 133.388 124.086C133.301 123.948 133.353 123.771 133.504 123.692L135.063 122.864C135.204 122.785 135.404 122.829 135.494 122.97C135.581 123.108 135.529 123.285 135.378 123.365L133.82 124.192C133.771 124.219 133.717 124.231 133.662 124.231ZM77.518 124.069L77.2025 124.048C77.2088 123.506 77.2153 122.961 77.2248 122.414C77.2281 122.258 77.3698 122.131 77.5404 122.131C77.7112 122.14 77.8591 122.261 77.8559 122.426C77.8463 122.967 77.8398 123.512 77.8335 124.054L77.518 124.069ZM136.778 122.576C136.669 122.576 136.563 122.526 136.505 122.431C136.418 122.293 136.47 122.116 136.621 122.037L138.182 121.206C138.324 121.123 138.523 121.168 138.613 121.312C138.7 121.45 138.649 121.627 138.498 121.707L136.936 122.537C136.888 122.564 136.833 122.576 136.778 122.576ZM139.898 120.918C139.789 120.918 139.683 120.868 139.625 120.773C139.538 120.635 139.589 120.458 139.741 120.379L141.299 119.551C141.441 119.472 141.644 119.516 141.731 119.657C141.817 119.796 141.766 119.973 141.614 120.052L140.056 120.879C140.008 120.906 139.953 120.918 139.898 120.918ZM77.563 120.77L77.2474 120.75C77.2537 120.208 77.2603 119.663 77.2698 119.115C77.2731 118.959 77.4177 118.833 77.5886 118.833C77.7624 118.836 77.9041 118.965 77.9008 119.127C77.8913 119.669 77.8848 120.214 77.8785 120.756L77.563 120.77ZM143.015 119.26C142.905 119.26 142.799 119.207 142.741 119.115C142.654 118.977 142.706 118.8 142.857 118.72L144.419 117.893C144.561 117.811 144.763 117.861 144.85 117.999C144.937 118.138 144.886 118.314 144.735 118.394L143.173 119.222C143.124 119.248 143.07 119.26 143.015 119.26ZM77.6049 117.761C77.4308 117.758 77.2861 117.628 77.2894 117.469L77.3085 115.82C77.3117 115.661 77.4502 115.534 77.624 115.534C77.7978 115.537 77.9428 115.667 77.9395 115.826L77.9204 117.475C77.9172 117.634 77.7788 117.761 77.6049 117.761ZM146.135 117.604C146.025 117.604 145.922 117.554 145.861 117.46C145.774 117.325 145.826 117.148 145.977 117.066L147.536 116.235C147.68 116.153 147.873 116.197 147.967 116.341C148.054 116.477 148.003 116.653 147.851 116.736L146.293 117.566C146.244 117.593 146.19 117.604 146.135 117.604ZM149.255 115.947C149.145 115.947 149.042 115.897 148.981 115.803C148.894 115.667 148.945 115.491 149.097 115.408L150.655 114.577C150.8 114.498 150.993 114.542 151.087 114.684C151.174 114.819 151.122 114.996 150.971 115.078L149.412 115.908C149.364 115.935 149.309 115.947 149.255 115.947ZM77.6404 114.462C77.4665 114.46 77.3216 114.33 77.3248 114.171C77.3314 113.623 77.3376 113.072 77.3409 112.522C77.3409 112.366 77.4842 112.236 77.6581 112.236C77.8319 112.236 77.972 112.366 77.972 112.528C77.9687 113.079 77.9624 113.629 77.9559 114.177C77.9526 114.336 77.8139 114.462 77.6404 114.462ZM152.371 114.289C152.262 114.289 152.156 114.238 152.098 114.145C152.011 114.006 152.062 113.829 152.213 113.75L153.772 112.922C153.914 112.84 154.113 112.884 154.203 113.029C154.29 113.167 154.239 113.343 154.087 113.423L152.529 114.25C152.481 114.277 152.426 114.289 152.371 114.289ZM155.491 112.631C155.381 112.631 155.275 112.581 155.217 112.487C155.13 112.348 155.182 112.172 155.333 112.092L156.892 111.265C157.033 111.185 157.233 111.229 157.323 111.37C157.41 111.509 157.359 111.685 157.207 111.765L155.649 112.593C155.6 112.619 155.546 112.631 155.491 112.631ZM77.6739 111.161C77.4998 111.161 77.36 111.032 77.36 110.87C77.3633 110.319 77.3665 109.768 77.3728 109.221C77.3761 109.061 77.5145 108.935 77.6886 108.935C77.8627 108.938 78.0071 109.067 78.0041 109.226C77.9976 109.774 77.9943 110.325 77.991 110.875C77.991 111.031 77.848 111.161 77.6739 111.161ZM158.608 110.976C158.498 110.976 158.392 110.926 158.334 110.831C158.247 110.693 158.298 110.516 158.45 110.437L160.012 109.606C160.153 109.523 160.353 109.568 160.443 109.712C160.53 109.85 160.479 110.027 160.327 110.107L158.765 110.937C158.717 110.964 158.662 110.976 158.608 110.976ZM161.727 109.318C161.618 109.318 161.512 109.268 161.454 109.173C161.367 109.035 161.418 108.858 161.57 108.779L163.128 107.951C163.27 107.872 163.473 107.916 163.56 108.057C163.647 108.196 163.595 108.372 163.444 108.452L161.885 109.279C161.837 109.306 161.782 109.318 161.727 109.318ZM77.6965 107.863C77.5226 107.863 77.3826 107.734 77.3826 107.572L77.3921 105.919C77.3921 105.763 77.5354 105.634 77.7093 105.634C77.8831 105.634 78.0232 105.763 78.0232 105.925L78.0136 107.577C78.0136 107.733 77.8703 107.863 77.6965 107.863ZM164.844 107.66C164.734 107.66 164.629 107.607 164.57 107.515C164.484 107.377 164.535 107.2 164.686 107.121L166.248 106.293C166.389 106.211 166.592 106.261 166.679 106.399C166.766 106.538 166.715 106.714 166.564 106.794L165.002 107.621C164.954 107.648 164.899 107.66 164.844 107.66ZM167.964 106.002C167.854 106.002 167.748 105.952 167.69 105.857C167.603 105.719 167.655 105.542 167.806 105.463L169.365 104.635C169.509 104.553 169.706 104.597 169.796 104.741C169.883 104.879 169.832 105.056 169.68 105.136L168.122 105.963C168.073 105.99 168.019 106.002 167.964 106.002ZM77.7145 104.556C77.5404 104.556 77.3989 104.435 77.3989 104.276V104.129C77.3989 103.628 77.3924 103.13 77.3763 102.636C77.3701 102.477 77.5085 102.344 77.6823 102.338C77.8466 102.359 78.0011 102.459 78.0074 102.618C78.0234 103.119 78.0303 103.622 78.0303 104.129V104.261C78.03 104.42 77.888 104.556 77.7145 104.556ZM171.084 104.347C170.974 104.347 170.871 104.297 170.81 104.203C170.723 104.067 170.774 103.891 170.926 103.808L172.484 102.977C172.629 102.898 172.822 102.942 172.915 103.084C173.003 103.219 172.951 103.396 172.8 103.478L171.241 104.309C171.193 104.335 171.138 104.347 171.084 104.347ZM174.2 102.689C174.091 102.689 173.985 102.638 173.927 102.545C173.84 102.406 173.891 102.23 174.043 102.15L175.601 101.322C175.743 101.24 175.942 101.284 176.033 101.429C176.119 101.567 176.068 101.744 175.917 101.823L174.358 102.65C174.31 102.677 174.255 102.689 174.2 102.689ZM77.6207 101.267C77.4532 101.267 77.3052 101.149 77.2957 100.995C77.2605 100.448 77.2153 99.9028 77.1573 99.361C77.1412 99.205 77.2701 99.0637 77.4439 99.046C77.6115 99.046 77.7722 99.1492 77.7886 99.3082C77.8466 99.8562 77.8918 100.407 77.927 100.96C77.9363 101.119 77.7946 101.257 77.6207 101.267ZM177.32 101.031C177.211 101.031 177.104 100.98 177.047 100.886C176.96 100.748 177.011 100.571 177.162 100.492L178.721 99.6643C178.863 99.5848 179.062 99.6289 179.152 99.7705C179.239 99.9088 179.188 100.086 179.037 100.165L177.478 100.992C177.429 101.019 177.375 101.031 177.32 101.031ZM180.437 99.3757C180.327 99.3757 180.221 99.3256 180.163 99.2317C180.076 99.0933 180.127 98.9166 180.279 98.8369L181.841 98.0065C181.982 97.9242 182.182 97.9681 182.272 98.1127C182.359 98.251 182.308 98.4277 182.156 98.5072L180.595 99.3376C180.546 99.364 180.492 99.3757 180.437 99.3757ZM77.2796 97.9828C77.1221 97.9828 76.987 97.8766 76.9673 97.7296C76.8932 97.1846 76.8063 96.643 76.7131 96.1069C76.6872 95.9512 76.803 95.8036 76.9769 95.777C77.151 95.7535 77.3085 95.8597 77.3376 96.0185C77.4308 96.5603 77.518 97.1083 77.5921 97.6588C77.6145 97.8178 77.4921 97.9621 77.318 97.9798L77.2796 97.9828ZM183.557 97.7176C183.447 97.7176 183.34 97.6675 183.283 97.5736C183.196 97.4353 183.247 97.2586 183.399 97.1788L184.957 96.3514C185.099 96.2719 185.302 96.316 185.389 96.4573C185.476 96.5956 185.424 96.7723 185.273 96.8521L183.714 97.6795C183.666 97.7059 183.611 97.7176 183.557 97.7176ZM186.673 96.0598C186.564 96.0598 186.458 96.0067 186.4 95.9153C186.313 95.777 186.364 95.6005 186.515 95.5208L188.077 94.6933C188.219 94.6106 188.422 94.6607 188.508 94.7993C188.595 94.9376 188.544 95.1143 188.393 95.194L186.831 96.0214C186.783 96.0481 186.728 96.0598 186.673 96.0598ZM76.7066 94.7257C76.5586 94.7257 76.4262 94.6315 76.3973 94.4932C76.2815 93.9544 76.1559 93.4181 76.0241 92.888C75.9821 92.732 76.0884 92.579 76.2592 92.5436C76.4202 92.4965 76.5971 92.6054 76.6357 92.7586C76.7742 93.2945 76.8998 93.8365 77.0156 94.3813C77.0513 94.5373 76.9385 94.6904 76.7679 94.72L76.7066 94.7257ZM189.793 94.4018C189.683 94.4018 189.577 94.3487 189.519 94.2572C189.432 94.1189 189.484 93.9424 189.635 93.8627L190.231 93.5477L190.53 93.4388C190.53 93.4388 190.788 93.3413 191.171 93.0764C191.306 92.9822 191.509 93.0029 191.612 93.1325C191.718 93.2591 191.689 93.4388 191.551 93.536C191.119 93.8363 190.791 93.9748 190.72 93.9895L190.501 94.0688L189.95 94.3634C189.902 94.39 189.848 94.4018 189.793 94.4018ZM192.61 92.417C192.546 92.417 192.478 92.3993 192.423 92.3609C192.282 92.2667 192.253 92.087 192.356 91.9574C192.684 91.5512 192.971 91.0889 193.209 90.5822C193.276 90.4352 193.454 90.3701 193.624 90.4319C193.785 90.4967 193.856 90.6644 193.788 90.812C193.531 91.3565 193.218 91.8572 192.864 92.2988C192.803 92.3756 192.707 92.417 192.61 92.417ZM75.8889 91.5128C75.7505 91.5128 75.6216 91.4276 75.5829 91.3007C75.4282 90.7706 75.2609 90.2465 75.087 89.7221C75.0385 89.5719 75.1323 89.4101 75.2993 89.363C75.4606 89.3099 75.641 89.4044 75.6922 89.5572C75.866 90.0815 76.0333 90.6116 76.1943 91.1477C76.2396 91.304 76.1396 91.4597 75.9723 91.5041L75.8889 91.5128ZM194.059 89.4161L193.985 89.4071C193.814 89.3688 193.712 89.216 193.753 89.0597C193.879 88.577 193.972 88.0469 194.027 87.4784C194.043 87.3194 194.194 87.1898 194.371 87.2165C194.545 87.2312 194.671 87.3725 194.658 87.5315C194.6 88.1261 194.5 88.6859 194.365 89.195C194.33 89.3279 194.201 89.4161 194.059 89.4161ZM74.8263 88.3589C74.6941 88.3589 74.5718 88.2824 74.5268 88.1645C74.4494 87.9584 74.3721 87.7553 74.2917 87.5519C74.1661 87.2399 74.0405 86.9306 73.9086 86.6273C73.844 86.4798 73.9244 86.3123 74.0857 86.253C74.2497 86.1884 74.4331 86.2677 74.4944 86.4152C74.6263 86.7243 74.7584 87.0395 74.884 87.3546C74.9644 87.5604 75.0483 87.7697 75.1254 87.9759C75.1802 88.1261 75.093 88.2911 74.929 88.344C74.8938 88.3529 74.8617 88.3589 74.8263 88.3589ZM194.429 86.1503C194.255 86.1443 194.114 86.0088 194.12 85.85L194.188 84.1977C194.194 84.0444 194.339 83.9208 194.51 83.9208C194.684 83.9268 194.825 84.0591 194.819 84.2211L194.751 85.8734C194.744 86.0294 194.597 86.1503 194.429 86.1503ZM73.5192 85.2845C73.3969 85.2845 73.2808 85.2197 73.2293 85.1106C72.9909 84.6012 72.7432 84.1037 72.492 83.6175C72.4146 83.4734 72.4822 83.3025 72.64 83.2349C72.7912 83.1554 72.9846 83.226 73.0587 83.3703C73.3162 83.8622 73.5642 84.3656 73.8089 84.881C73.8764 85.0281 73.8023 85.1988 73.6446 85.2606C73.6029 85.2756 73.5609 85.2845 73.5192 85.2845ZM194.553 82.8462C194.379 82.8402 194.236 82.7078 194.242 82.5486C194.261 82.0158 194.278 81.465 194.294 80.8997C194.297 80.7435 194.443 80.6199 194.614 80.6199C194.788 80.6229 194.928 80.7552 194.925 80.9172C194.909 81.4827 194.893 82.0332 194.873 82.5665C194.867 82.7223 194.724 82.8462 194.553 82.8462ZM71.9738 82.3073C71.861 82.3073 71.7517 82.2513 71.6934 82.1511C71.413 81.6561 71.1267 81.1791 70.8367 80.7138C70.7501 80.5755 70.8016 80.3988 70.9528 80.3193C71.104 80.2368 71.2972 80.2867 71.3841 80.4252C71.6806 80.8965 71.967 81.3855 72.2536 81.8859C72.334 82.0275 72.2729 82.2009 72.1184 82.2747C72.0735 82.2951 72.022 82.3073 71.9738 82.3073ZM194.655 79.5537C194.513 79.533 194.336 79.4211 194.339 79.2591L194.374 77.6073C194.377 77.448 194.5 77.3067 194.696 77.3244C194.87 77.3274 195.009 77.4598 195.005 77.619L194.97 79.2708C194.967 79.4271 194.825 79.5537 194.655 79.5537ZM70.1932 79.4358C70.0869 79.4358 69.9839 79.3857 69.9261 79.2975C69.6041 78.8235 69.282 78.3639 68.957 77.9193C68.8605 77.7867 68.9022 77.6073 69.0474 77.5188C69.1856 77.4306 69.3886 77.4627 69.4853 77.6011C69.8103 78.0516 70.1387 78.5169 70.4607 78.9969C70.5539 79.1323 70.509 79.309 70.3575 79.3917C70.306 79.4211 70.2512 79.4358 70.1932 79.4358ZM68.194 76.6911C68.0973 76.6911 68.0009 76.65 67.9363 76.5705C67.5788 76.114 67.2216 75.6753 66.8674 75.2599C66.7578 75.1363 66.7837 74.9538 66.9221 74.8564C67.0573 74.7592 67.2603 74.7801 67.3633 74.9067C67.724 75.3277 68.0875 75.7725 68.4515 76.2348C68.5515 76.3642 68.5191 76.5439 68.3774 76.6383C68.3226 76.6737 68.2583 76.6911 68.194 76.6911ZM194.719 76.2495C194.545 76.2465 194.403 76.1169 194.407 75.955L194.436 74.3059C194.439 74.1499 194.583 74.0232 194.754 74.0232C194.928 74.0262 195.07 74.1556 195.067 74.3176L195.038 75.9667C195.034 76.1229 194.89 76.2495 194.719 76.2495ZM65.9821 74.0821C65.8917 74.0821 65.8017 74.0467 65.7404 73.9789C65.3383 73.54 64.9451 73.1278 64.5653 72.7363C64.4492 72.6186 64.459 72.436 64.5909 72.33C64.7132 72.2209 64.9225 72.2326 65.0353 72.3535C65.4214 72.7452 65.8205 73.1632 66.2233 73.608C66.3361 73.7317 66.3164 73.9141 66.1846 74.0145C66.1235 74.0616 66.053 74.0821 65.9821 74.0821ZM194.783 72.9481C194.603 72.9715 194.465 72.8188 194.468 72.6538C194.477 72.115 194.484 71.5642 194.491 71.0077C194.494 70.8484 194.632 70.7221 194.806 70.7221C194.98 70.7248 195.125 70.8544 195.122 71.0134C195.115 71.5702 195.109 72.1207 195.099 72.6657C195.096 72.8215 194.954 72.9481 194.783 72.9481ZM63.5705 71.635C63.4868 71.635 63.4062 71.6053 63.3454 71.5467C62.9105 71.1375 62.4855 70.7545 62.0702 70.3953C61.9449 70.2862 61.9416 70.1038 62.0607 69.9859C62.1798 69.874 62.3795 69.8652 62.5084 69.9771C62.9233 70.3423 63.3549 70.731 63.7961 71.1462C63.9184 71.2611 63.9151 71.4436 63.7895 71.5525C63.7282 71.6083 63.6509 71.635 63.5705 71.635ZM194.825 69.6532C194.651 69.6502 194.507 69.5206 194.51 69.3616L194.529 67.7092C194.532 67.5502 194.671 67.4236 194.844 67.4236C195.018 67.4266 195.163 67.5562 195.16 67.7152L195.141 69.3671C195.138 69.5263 194.999 69.6532 194.825 69.6532ZM60.9626 69.3553C60.8885 69.3553 60.8147 69.3319 60.7534 69.2818C60.2673 68.893 59.8134 68.5396 59.3886 68.2276C59.2502 68.1274 59.2305 67.9477 59.3401 67.8241C59.4496 67.7005 59.6493 67.6768 59.7812 67.78C60.2128 68.0978 60.6795 68.4514 61.1722 68.8517C61.3008 68.9548 61.3139 69.1375 61.2011 69.2582C61.1362 69.3232 61.0496 69.3553 60.9626 69.3553ZM58.1486 67.294C58.0843 67.294 58.0197 67.2766 57.9649 67.2382C57.5946 66.9937 57.2758 66.7934 57.0151 66.6376L56.484 66.3196C56.3361 66.2344 56.2941 66.0544 56.3908 65.9221C56.4808 65.7895 56.684 65.7481 56.8254 65.8363L57.3633 66.1546C57.6306 66.3166 57.9557 66.5227 58.3325 66.7732C58.4739 66.8646 58.5063 67.0471 58.4031 67.1737C58.3417 67.2529 58.2453 67.294 58.1486 67.294ZM194.862 66.3517C194.689 66.3517 194.549 66.2224 194.549 66.0604C194.552 65.5273 194.558 64.9883 194.564 64.4435C194.564 64.2845 194.706 64.1402 194.88 64.1402C195.054 64.1431 195.199 64.255 195.196 64.4143V64.4497C195.189 64.9942 195.183 65.5335 195.18 66.0664C195.18 66.2221 195.036 66.3517 194.862 66.3517ZM55.1255 65.4802C55.0675 65.4802 55.0094 65.4655 54.9579 65.4358C54.4748 65.162 53.9471 64.8646 53.4223 64.5848C53.2711 64.5025 53.2196 64.3258 53.3062 64.1873C53.3964 64.0489 53.5931 64.0016 53.7378 64.0841C54.2688 64.3697 54.8034 64.667 55.2931 64.9469C55.441 65.0296 55.4862 65.2088 55.3931 65.3446C55.3348 65.4329 55.2315 65.4802 55.1255 65.4802ZM52.0087 63.8192C51.9602 63.8192 51.9087 63.8074 51.8637 63.787C51.455 63.5956 51.0975 63.4423 50.8305 63.3509C50.6564 63.2921 50.4632 63.236 50.2638 63.1889C50.0929 63.1475 49.9935 62.9917 50.0352 62.8385C50.0771 62.6822 50.254 62.5883 50.4183 62.6294C50.6433 62.6822 50.8561 62.744 51.0493 62.8088C51.3488 62.912 51.7191 63.0683 52.1534 63.2741C52.3079 63.3476 52.3694 63.5216 52.2885 63.6629C52.234 63.7631 52.1215 63.8192 52.0087 63.8192ZM194.893 63.0535C194.719 63.0506 194.574 62.921 194.577 62.762C194.584 62.2144 194.587 61.6634 194.59 61.1101C194.59 60.9539 194.733 60.8243 194.907 60.8243C195.081 60.8243 195.221 60.9539 195.221 61.1159C195.218 61.6696 195.215 62.2202 195.209 62.7682C195.205 62.9269 195.067 63.0535 194.893 63.0535ZM48.5508 62.9048C47.9745 62.8487 47.3791 62.8297 46.7832 62.8235L46.7642 62.2463C47.3887 62.2199 48.0006 62.273 48.5993 62.3316C48.7731 62.3463 48.8987 62.4908 48.8796 62.6466C48.8633 62.7971 48.7118 62.9048 48.5508 62.9048ZM194.92 59.7494C194.746 59.7494 194.606 59.6198 194.606 59.4578L194.616 57.8087C194.616 57.6527 194.759 57.5231 194.933 57.5231C195.107 57.5231 195.247 57.6527 195.247 57.8147L195.237 59.464C195.237 59.6195 195.094 59.7494 194.92 59.7494ZM194.943 56.4509C194.769 56.4509 194.629 56.3216 194.629 56.1596L194.638 54.5105C194.638 54.3543 194.782 54.2249 194.956 54.2249C195.129 54.2249 195.27 54.3543 195.27 54.5163L195.26 56.1653C195.26 56.3216 195.116 56.4509 194.943 56.4509ZM194.959 53.1528C194.785 53.1528 194.645 53.0232 194.645 52.8612L194.655 51.2121C194.655 51.0561 194.798 50.9265 194.972 50.9265C195.146 50.9265 195.286 51.0561 195.286 51.2181L195.276 52.8672C195.276 53.0232 195.133 53.1528 194.959 53.1528ZM194.98 49.8486C194.806 49.8486 194.664 49.719 194.664 49.56C194.664 49.012 194.667 48.4614 194.671 47.9077C194.671 47.7517 194.814 47.6221 194.988 47.6221C195.162 47.6221 195.302 47.7517 195.302 47.9137C195.298 48.4612 195.295 49.012 195.295 49.5598C195.295 49.719 195.154 49.8486 194.98 49.8486ZM194.992 46.5502C194.819 46.5502 194.677 46.4208 194.677 46.2616C194.677 45.714 194.68 45.1633 194.683 44.6097C194.683 44.4535 194.827 44.3239 195.001 44.3239C195.174 44.3239 195.315 44.4535 195.315 44.6155C195.311 45.1635 195.308 45.714 195.308 46.2616C195.308 46.4208 195.167 46.5502 194.992 46.5502ZM195.003 43.255C194.828 43.255 194.687 43.1254 194.687 42.9664C194.687 42.4153 194.69 41.8648 194.693 41.311C194.693 41.155 194.837 41.0254 195.01 41.0254C195.184 41.0254 195.324 41.155 195.324 41.317C195.321 41.8646 195.318 42.4153 195.318 42.9661C195.318 43.1254 195.176 43.255 195.003 43.255ZM195.014 39.9535C194.84 39.9535 194.7 39.8212 194.7 39.6622C194.703 39.2792 194.703 38.8964 194.703 38.5136V38.4074C194.7 38.278 194.7 38.1455 194.7 38.0099C194.7 37.8509 194.841 37.7213 195.015 37.7213C195.189 37.7213 195.331 37.8509 195.331 38.0099C195.331 38.1395 195.331 38.2721 195.334 38.4016V38.5136C195.334 38.8964 195.334 39.2792 195.331 39.6679C195.331 39.8269 195.188 39.9535 195.014 39.9535ZM194.973 36.6526C194.806 36.6526 194.658 36.532 194.651 36.3757C194.626 35.825 194.59 35.2832 194.542 34.7413C194.529 34.5823 194.658 34.444 194.832 34.4293C195.028 34.4293 195.16 34.5355 195.173 34.6945C195.221 35.242 195.256 35.7958 195.282 36.3526C195.289 36.5111 195.147 36.6466 194.973 36.6526ZM194.687 33.3661C194.529 33.3661 194.394 33.257 194.374 33.1129C194.304 32.5679 194.223 32.0261 194.13 31.4873C194.104 31.3313 194.22 31.184 194.394 31.1573C194.555 31.1164 194.725 31.24 194.755 31.3988C194.848 31.9436 194.928 32.4914 194.999 33.0419C195.022 33.2012 194.896 33.3452 194.726 33.3632L194.687 33.3661ZM194.13 30.1091C193.982 30.1091 193.849 30.0146 193.821 29.8763C193.701 29.3375 193.576 28.8072 193.441 28.2773C193.399 28.1211 193.505 27.965 193.673 27.9297C193.853 27.8855 194.014 27.9887 194.053 28.1417C194.194 28.6778 194.32 29.2199 194.439 29.7644C194.474 29.9207 194.362 30.0707 194.191 30.1031L194.13 30.1091ZM193.293 26.8989C193.154 26.8989 193.029 26.8166 192.99 26.6868C192.829 26.1627 192.655 25.6386 192.472 25.1232C192.417 24.9699 192.507 24.8082 192.671 24.7581C192.852 24.7107 193.016 24.7905 193.07 24.9405C193.26 25.4676 193.434 25.9977 193.595 26.5335C193.643 26.6868 193.544 26.846 193.376 26.8869L193.293 26.8989ZM192.182 23.7627C192.053 23.7627 191.934 23.6922 191.885 23.5743C191.676 23.0529 191.454 22.5465 191.229 22.0518C191.161 21.9047 191.235 21.7368 191.396 21.675C191.551 21.6044 191.744 21.6809 191.809 21.8282C192.04 22.3289 192.263 22.8473 192.478 23.3744C192.539 23.5247 192.456 23.6897 192.291 23.7452C192.256 23.7567 192.217 23.7627 192.182 23.7627ZM190.788 20.7237C190.669 20.7237 190.556 20.6619 190.501 20.5557C190.247 20.055 189.98 19.5663 189.709 19.0893C189.629 18.948 189.69 18.7743 189.844 18.7005C189.992 18.6297 190.189 18.6796 190.269 18.8241C190.546 19.3071 190.814 19.8018 191.075 20.3142C191.148 20.4588 191.078 20.6292 190.92 20.6973C190.878 20.7147 190.833 20.7237 190.788 20.7237ZM189.123 17.7996C189.014 17.7996 188.907 17.7465 188.85 17.655C188.547 17.1693 188.235 16.701 187.926 16.2504C187.833 16.1151 187.877 15.9384 188.025 15.8527C188.17 15.7704 188.364 15.8056 188.46 15.9441C188.776 16.4007 189.088 16.8747 189.397 17.3667C189.484 17.505 189.433 17.682 189.281 17.7615C189.23 17.7874 189.178 17.7996 189.123 17.7996ZM187.198 15.0046C187.098 15.0046 186.998 14.9602 186.937 14.878C186.59 14.4157 186.242 13.9738 185.894 13.5526C185.788 13.4263 185.817 13.2466 185.955 13.1494C186.097 13.0519 186.294 13.0756 186.397 13.2052C186.751 13.6321 187.105 14.08 187.459 14.554C187.556 14.6833 187.52 14.863 187.376 14.9545C187.32 14.9869 187.259 15.0046 187.198 15.0046ZM185.031 12.3718C184.941 12.3718 184.851 12.3364 184.786 12.2659C184.387 11.821 183.998 11.4058 183.621 11.02C183.505 10.9022 183.515 10.7197 183.646 10.6136C183.772 10.5046 183.978 10.5164 184.091 10.6375C184.474 11.029 184.87 11.4502 185.276 11.9008C185.385 12.0244 185.366 12.2041 185.231 12.3073C185.173 12.3511 185.102 12.3718 185.031 12.3718ZM182.629 9.91275C182.549 9.91275 182.465 9.88359 182.404 9.82752C181.963 9.41531 181.535 9.03226 181.126 8.67886C181 8.56995 180.994 8.38752 181.113 8.27263C181.232 8.15475 181.432 8.15176 181.557 8.26092C181.973 8.61431 182.407 9.0031 182.855 9.42104C182.977 9.53593 182.974 9.71861 182.852 9.83051C182.787 9.88633 182.71 9.91275 182.629 9.91275ZM179.996 7.65107C179.925 7.65107 179.851 7.62765 179.793 7.58354C179.281 7.18578 178.814 6.8441 178.405 6.55849C178.267 6.4613 178.238 6.28161 178.344 6.155C178.447 6.02566 178.65 6.00472 178.785 6.09918C179.207 6.39052 179.68 6.73818 180.198 7.14167C180.333 7.24485 180.35 7.42727 180.237 7.5479C180.173 7.61593 180.086 7.65107 179.996 7.65107ZM177.124 5.66329C177.063 5.66329 177.001 5.64585 176.947 5.6132C176.534 5.35725 175.984 5.03899 175.437 4.74167C175.289 4.66217 175.237 4.48523 175.327 4.34691C175.414 4.20859 175.604 4.1585 175.758 4.24672C176.316 4.54703 176.879 4.87401 177.301 5.13594C177.446 5.2274 177.481 5.40709 177.384 5.53644C177.323 5.61918 177.223 5.66329 177.124 5.66329ZM158.36 4.12336C158.237 4.12336 158.125 4.05856 158.07 3.95264C158.002 3.8051 158.073 3.63439 158.231 3.56959C158.762 3.35451 159.339 3.15439 159.941 2.97196C160.101 2.92461 160.282 3.00411 160.34 3.15439C160.395 3.30766 160.304 3.4694 160.14 3.5195C159.558 3.69619 159 3.89034 158.489 4.09968C158.447 4.11439 158.401 4.12336 158.36 4.12336ZM174.02 3.97881C173.969 3.97881 173.92 3.9671 173.872 3.94666C173.325 3.68149 172.787 3.44299 172.269 3.23414C172.111 3.16934 172.04 2.99838 172.108 2.85109C172.178 2.70978 172.362 2.64199 172.526 2.70405C173.054 2.91912 173.608 3.16635 174.168 3.43451C174.323 3.51102 174.381 3.68473 174.3 3.82629C174.242 3.92298 174.133 3.97881 174.02 3.97881ZM161.782 3.0866C161.641 3.0866 161.509 2.99813 161.476 2.86579C161.434 2.70953 161.541 2.55377 161.708 2.51838C162.291 2.39177 162.893 2.28261 163.498 2.1914C163.708 2.15601 163.833 2.27364 163.862 2.4299C163.888 2.58891 163.772 2.73595 163.601 2.76261C163.009 2.84785 162.423 2.95701 161.856 3.07763L161.782 3.0866ZM170.717 2.66866C170.717 2.66866 170.652 2.66268 170.62 2.65395C170.408 2.59215 170.202 2.53906 170.002 2.49196C169.947 2.48299 169.567 2.4476 168.93 2.43015C168.756 2.42417 168.617 2.29184 168.624 2.13258C168.63 1.97358 168.769 1.84997 168.949 1.85296C169.548 1.8704 170.031 1.90579 170.15 1.93221C170.369 1.97956 170.588 2.03838 170.813 2.10592C170.981 2.15327 171.071 2.31825 171.016 2.46828C170.974 2.5919 170.849 2.66866 170.717 2.66866ZM165.349 2.55202C165.189 2.55202 165.037 2.44162 165.021 2.29408C165.002 2.13508 165.127 1.99377 165.302 1.97931C165.913 1.92025 166.525 1.88486 167.124 1.86442C167.298 1.85545 167.443 1.98505 167.449 2.14405C167.455 2.3033 167.32 2.43564 167.143 2.44162C166.563 2.45931 165.948 2.49894 165.349 2.55202Z" fill="#D4D4D4"/>
<path d="M44.0078 63.0356C43.8566 63.0356 43.7247 62.9384 43.6989 62.7971C43.6664 62.6411 43.7825 62.4911 43.9531 62.4614C44.2525 62.4143 44.5552 62.3732 44.8678 62.3435C45.0481 62.2907 45.1961 62.441 45.2122 62.6C45.2312 62.7563 45.1056 62.9003 44.9318 62.915C44.6386 62.9444 44.349 62.9855 44.0623 63.0329L44.0078 63.0356Z" fill="#D4D4D4"/>
<path d="M61.4833 73.5565C64.8557 76.7697 68.9123 81.6915 71.6002 88.4516C73.3977 92.9558 74.5516 98.2151 74.5328 104.253C74.4516 130.443 74.2647 145.166 74.2647 145.166C74.5257 151.328 78.0245 153.43 78.0245 153.43C73.4293 153.668 72.6805 145.679 72.698 145.166C72.6999 145.078 72.5258 142.412 72.5994 139.351C72.6571 136.281 72.7506 131.917 72.8307 126.736C73.0233 116.392 72.7157 116.401 72.7563 103.315C72.7751 92.0875 68.6477 84.2136 64.4481 78.913C60.2169 73.5953 54.5647 68.4933 48.99 66.3081C45.8121 65.0623 41.9719 66.5648 41.1428 67.626C40.6611 68.2426 39.9545 67.9759 39.9562 67.4543C39.9578 66.9329 40.2243 66.5082 40.5826 66.2005C40.5826 66.2005 44.9296 63.0757 49.93 65.2096C55.1914 67.4543 58.127 70.352 61.4833 73.5565Z" fill="#915837"/>
<path d="M152.691 103.564L130.984 115.027V102.035L152.691 90.5728V103.564Z" fill="#DEDBD6"/>
<path d="M31.8101 192.405L26.9535 196.417L23.7081 196.448C22.4932 196.46 21.2965 196.176 20.2412 195.625L3.96376 187.318C1.18319 185.563 0.205017 183.403 0.205017 183.403L31.8101 192.405Z" fill="#2B2B2B"/>
<path d="M56.5265 194.89C56.5265 194.89 54.4227 195.674 40.5305 196.513C29.4597 197.182 25.2988 196.323 25.2988 196.323L0.20447 183.403C0.20447 183.403 -0.227396 181.157 0.164146 174.422C0.547241 167.834 1.22188 166.219 1.22188 166.219L56.5265 194.89Z" fill="#3B3B3B"/>
<path d="M56.5265 194.89L39.7992 186.196L41.4705 185.05L58.4812 193.981L56.5265 194.89Z" fill="#2B2B2B"/>
<path d="M18.4938 175.139L1.22186 166.218L3.10192 165.287L20.2169 174.243L18.4938 175.139Z" fill="#2B2B2B"/>
<path d="M141.746 21.8158L137.751 13.5765C137.391 12.8555 136.587 12.1953 135.95 11.8567L126.589 7.14539C127.226 7.48408 127.745 8.01816 128.106 8.7389L132.209 17.0546C132.31 17.2652 132.457 17.4175 132.637 17.513L142 22.4899C141.82 22.3944 141.847 22.0263 141.746 21.8158Z" fill="#7A4321"/>
<path d="M129.421 2.67795C127.386 1.59659 124.581 1.79646 121.581 3.38026L97.9509 15.8592C93.7267 18.0898 89.8838 22.6552 88.0473 27.6254L83.0091 41.3046C82.638 42.3307 82.8137 43.2002 83.3949 43.509L92.7581 48.4859C92.1769 48.1772 92.3404 47.3448 92.7121 46.319L97.725 32.6345C99.5617 27.6643 103.371 23.2586 107.594 21.0278L131.289 8.56105C134.289 6.97726 136.75 6.57327 138.784 7.65464L129.421 2.67795Z" fill="url(#paint1_linear_11_1734)"/>
<path d="M130.944 8.35739C135.422 5.99228 139.469 6.71303 141.162 10.1764L145.265 18.4745C145.692 19.338 145.205 20.8281 144.188 21.7934C143.936 22.0359 143.675 22.2248 143.419 22.3601C142.628 22.778 141.882 22.6783 141.572 22.0321L137.468 13.7164C136.374 11.5262 133.807 11.0602 130.957 12.5652L107.326 25.0439C104.629 26.4685 102.191 29.3809 101.029 32.5308L95.9907 46.21C95.6406 47.1501 94.9234 47.972 94.1823 48.363C93.8891 48.5178 93.5924 48.6053 93.3131 48.6058C92.311 48.6354 91.8998 47.5845 92.3715 46.2818L97.4095 32.6026C99.2462 27.6324 103.089 23.0671 107.313 20.8364L130.944 8.35739Z" fill="#915837"/>
<defs>
<linearGradient id="paint0_linear_11_1734" x1="154.625" y1="116.488" x2="107.718" y2="27.6629" gradientUnits="userSpaceOnUse">
<stop offset="0.3985" stop-color="#A6653F"/>
<stop offset="0.5335" stop-color="#A76844"/>
<stop offset="0.6827" stop-color="#AC7251"/>
<stop offset="0.7893" stop-color="#B07C5F"/>
<stop offset="0.9084" stop-color="#AF7B5D"/>
<stop offset="0.9513" stop-color="#AD7656"/>
<stop offset="0.9818" stop-color="#AA6D4B"/>
<stop offset="1" stop-color="#A6653F"/>
</linearGradient>
<linearGradient id="paint1_linear_11_1734" x1="93.4342" y1="48.8432" x2="120.344" y2="-2.11509" gradientUnits="userSpaceOnUse">
<stop stop-color="#A6653F"/>
<stop offset="0.2421" stop-color="#A96D4A"/>
<stop offset="0.7893" stop-color="#B07C5F"/>
<stop offset="0.9084" stop-color="#AF7B5D"/>
<stop offset="0.9513" stop-color="#AD7656"/>
<stop offset="0.9818" stop-color="#AA6D4B"/>
<stop offset="1" stop-color="#A6653F"/>
</linearGradient>
</defs>
</svg>
