<svg width="30" height="20" viewBox="0 0 30 20" fill="none" xmlns="http://www.w3.org/2000/svg">
<path d="M27.9495 5.26219C20.9308 -1.75406 9.07077 -1.75406 2.05202 5.26219C-0.447978 7.76219 -0.687978 11.4484 1.46577 14.2259C1.65298 14.466 1.8925 14.6601 2.16609 14.7935C2.43968 14.927 2.74012 14.9962 3.04452 14.9959C3.29042 14.9961 3.53418 14.9503 3.76327 14.8609L9.88827 12.6897L9.92452 12.6759C10.2337 12.5523 10.507 12.3534 10.7199 12.0974C10.9327 11.8413 11.0782 11.5362 11.1433 11.2097L11.8808 7.51969C13.8916 6.82456 16.0769 6.81972 18.0908 7.50594L18.867 11.2247C18.9343 11.5476 19.0805 11.8489 19.2925 12.1017C19.5045 12.3545 19.7757 12.5509 20.082 12.6734L20.1183 12.6872L26.2433 14.8609C26.6434 15.0159 27.0828 15.0381 27.4965 14.9242C27.9102 14.8103 28.2763 14.5664 28.5408 14.2284C30.6895 11.4484 30.4483 7.76219 27.9495 5.26219ZM26.9595 12.9959L26.922 12.9809L20.8195 10.8147L20.0433 7.09719C19.9728 6.7608 19.8169 6.44825 19.5905 6.18967C19.3641 5.93109 19.0749 5.73522 18.7508 5.62094C16.3054 4.7837 13.65 4.78942 11.2083 5.63719C10.8816 5.75389 10.591 5.95353 10.3648 6.21651C10.1386 6.47949 9.98476 6.79677 9.91827 7.13719L9.18077 10.8259L3.07952 12.9784C3.06702 12.9784 3.05827 12.9947 3.04577 12.9997C1.50452 11.0109 1.67077 8.47094 3.46577 6.67719C6.59077 3.55219 10.797 1.98594 15.0008 1.98594C19.2045 1.98594 23.4095 3.54969 26.5358 6.67719C28.327 8.47094 28.5008 11.0109 26.9595 12.9959ZM26.9995 18.9959C26.9995 19.2612 26.8942 19.5155 26.7066 19.703C26.5191 19.8906 26.2647 19.9959 25.9995 19.9959H4.00077C3.73556 19.9959 3.4812 19.8906 3.29367 19.703C3.10613 19.5155 3.00077 19.2612 3.00077 18.9959C3.00077 18.7307 3.10613 18.4764 3.29367 18.2888C3.4812 18.1013 3.73556 17.9959 4.00077 17.9959H26.0008C26.266 17.9959 26.5203 18.1013 26.7079 18.2888C26.8954 18.4764 27.0008 18.7307 27.0008 18.9959H26.9995Z" fill="white"/>
</svg>
